<mxfile host="Electron" agent="Mozilla/5.0 (Windows NT 10.0; Win64; x64) AppleWebKit/537.36 (KHTML, like Gecko) draw.io/25.0.2 Chrome/128.0.6613.186 Electron/32.2.5 Safari/537.36" version="25.0.2">
  <diagram name="Seite-1" id="Uk3v54UQZznC-fcuoL55">
    <mxGraphModel dx="988" dy="1315" grid="1" gridSize="10" guides="1" tooltips="1" connect="1" arrows="1" fold="1" page="1" pageScale="1" pageWidth="827" pageHeight="1169" math="0" shadow="0">
      <root>
        <mxCell id="0" />
        <mxCell id="1" parent="0" />
        <mxCell id="m1JEwa6g45QXfkqcJDw3-8" value="" style="edgeStyle=orthogonalEdgeStyle;rounded=0;orthogonalLoop=1;jettySize=auto;html=1;" edge="1" parent="1" source="m1JEwa6g45QXfkqcJDw3-2" target="m1JEwa6g45QXfkqcJDw3-3">
          <mxGeometry relative="1" as="geometry">
            <Array as="points">
              <mxPoint x="210" y="120" />
              <mxPoint x="210" y="120" />
            </Array>
          </mxGeometry>
        </mxCell>
        <mxCell id="m1JEwa6g45QXfkqcJDw3-9" value="in" style="edgeLabel;html=1;align=center;verticalAlign=middle;resizable=0;points=[];" vertex="1" connectable="0" parent="m1JEwa6g45QXfkqcJDw3-8">
          <mxGeometry x="-0.4397" y="-1" relative="1" as="geometry">
            <mxPoint x="1" y="9" as="offset" />
          </mxGeometry>
        </mxCell>
        <mxCell id="m1JEwa6g45QXfkqcJDw3-2" value="Daisy chain&lt;br&gt;(J401, J402)" style="rounded=0;whiteSpace=wrap;html=1;" vertex="1" parent="1">
          <mxGeometry x="180" y="40" width="100" height="60" as="geometry" />
        </mxCell>
        <mxCell id="m1JEwa6g45QXfkqcJDw3-10" value="" style="edgeStyle=orthogonalEdgeStyle;rounded=0;orthogonalLoop=1;jettySize=auto;html=1;" edge="1" parent="1" source="m1JEwa6g45QXfkqcJDw3-3" target="m1JEwa6g45QXfkqcJDw3-2">
          <mxGeometry relative="1" as="geometry">
            <Array as="points">
              <mxPoint x="250" y="130" />
              <mxPoint x="250" y="130" />
            </Array>
          </mxGeometry>
        </mxCell>
        <mxCell id="m1JEwa6g45QXfkqcJDw3-11" value="out" style="edgeLabel;html=1;align=center;verticalAlign=middle;resizable=0;points=[];" vertex="1" connectable="0" parent="m1JEwa6g45QXfkqcJDw3-10">
          <mxGeometry x="-0.25" y="1" relative="1" as="geometry">
            <mxPoint y="-5" as="offset" />
          </mxGeometry>
        </mxCell>
        <mxCell id="m1JEwa6g45QXfkqcJDw3-12" value="" style="edgeStyle=orthogonalEdgeStyle;rounded=0;orthogonalLoop=1;jettySize=auto;html=1;" edge="1" parent="1" source="m1JEwa6g45QXfkqcJDw3-3" target="m1JEwa6g45QXfkqcJDw3-4">
          <mxGeometry relative="1" as="geometry">
            <Array as="points">
              <mxPoint x="210" y="220" />
              <mxPoint x="210" y="220" />
            </Array>
          </mxGeometry>
        </mxCell>
        <mxCell id="m1JEwa6g45QXfkqcJDw3-3" value="isolation&lt;br&gt;transformers" style="rounded=0;whiteSpace=wrap;html=1;" vertex="1" parent="1">
          <mxGeometry x="180" y="140" width="100" height="60" as="geometry" />
        </mxCell>
        <mxCell id="m1JEwa6g45QXfkqcJDw3-13" value="" style="edgeStyle=orthogonalEdgeStyle;rounded=0;orthogonalLoop=1;jettySize=auto;html=1;" edge="1" parent="1" source="m1JEwa6g45QXfkqcJDw3-4" target="m1JEwa6g45QXfkqcJDw3-3">
          <mxGeometry relative="1" as="geometry">
            <Array as="points">
              <mxPoint x="250" y="230" />
              <mxPoint x="250" y="230" />
            </Array>
          </mxGeometry>
        </mxCell>
        <mxCell id="m1JEwa6g45QXfkqcJDw3-16" style="edgeStyle=orthogonalEdgeStyle;rounded=0;orthogonalLoop=1;jettySize=auto;html=1;entryX=1;entryY=0.5;entryDx=0;entryDy=0;startArrow=classic;startFill=1;" edge="1" parent="1" source="m1JEwa6g45QXfkqcJDw3-4" target="m1JEwa6g45QXfkqcJDw3-5">
          <mxGeometry relative="1" as="geometry" />
        </mxCell>
        <mxCell id="m1JEwa6g45QXfkqcJDw3-17" value="S-Pins" style="edgeLabel;html=1;align=center;verticalAlign=middle;resizable=0;points=[];" vertex="1" connectable="0" parent="m1JEwa6g45QXfkqcJDw3-16">
          <mxGeometry x="-0.2148" y="-1" relative="1" as="geometry">
            <mxPoint x="1" y="15" as="offset" />
          </mxGeometry>
        </mxCell>
        <mxCell id="m1JEwa6g45QXfkqcJDw3-34" style="edgeStyle=orthogonalEdgeStyle;rounded=0;orthogonalLoop=1;jettySize=auto;html=1;entryX=0;entryY=0.5;entryDx=0;entryDy=0;startArrow=classic;startFill=1;" edge="1" parent="1" source="m1JEwa6g45QXfkqcJDw3-4" target="m1JEwa6g45QXfkqcJDw3-20">
          <mxGeometry relative="1" as="geometry">
            <mxPoint x="340" y="770" as="targetPoint" />
          </mxGeometry>
        </mxCell>
        <mxCell id="m1JEwa6g45QXfkqcJDw3-42" value="GPIOs" style="edgeLabel;html=1;align=center;verticalAlign=middle;resizable=0;points=[];" vertex="1" connectable="0" parent="m1JEwa6g45QXfkqcJDw3-34">
          <mxGeometry x="-0.7803" y="-3" relative="1" as="geometry">
            <mxPoint x="13" y="47" as="offset" />
          </mxGeometry>
        </mxCell>
        <mxCell id="m1JEwa6g45QXfkqcJDw3-4" value="ADES1830" style="rounded=0;whiteSpace=wrap;html=1;fontStyle=1" vertex="1" parent="1">
          <mxGeometry x="180" y="240" width="100" height="60" as="geometry" />
        </mxCell>
        <mxCell id="m1JEwa6g45QXfkqcJDw3-18" value="" style="edgeStyle=orthogonalEdgeStyle;rounded=0;orthogonalLoop=1;jettySize=auto;html=1;entryX=0;entryY=0.5;entryDx=0;entryDy=0;" edge="1" parent="1" source="m1JEwa6g45QXfkqcJDw3-5" target="m1JEwa6g45QXfkqcJDw3-7">
          <mxGeometry relative="1" as="geometry" />
        </mxCell>
        <mxCell id="m1JEwa6g45QXfkqcJDw3-5" value="passive cell balancing" style="rounded=0;whiteSpace=wrap;html=1;" vertex="1" parent="1">
          <mxGeometry x="40" y="340" width="100" height="60" as="geometry" />
        </mxCell>
        <mxCell id="m1JEwa6g45QXfkqcJDw3-14" value="" style="edgeStyle=orthogonalEdgeStyle;rounded=0;orthogonalLoop=1;jettySize=auto;html=1;" edge="1" parent="1" source="m1JEwa6g45QXfkqcJDw3-6" target="m1JEwa6g45QXfkqcJDw3-4">
          <mxGeometry relative="1" as="geometry" />
        </mxCell>
        <mxCell id="m1JEwa6g45QXfkqcJDw3-15" value="C-Pins" style="edgeLabel;html=1;align=center;verticalAlign=middle;resizable=0;points=[];" vertex="1" connectable="0" parent="m1JEwa6g45QXfkqcJDw3-14">
          <mxGeometry x="-0.0776" y="-2" relative="1" as="geometry">
            <mxPoint x="-2" y="-1" as="offset" />
          </mxGeometry>
        </mxCell>
        <mxCell id="m1JEwa6g45QXfkqcJDw3-6" value="cell voltage input circuit" style="rounded=0;whiteSpace=wrap;html=1;" vertex="1" parent="1">
          <mxGeometry x="180" y="340" width="100" height="60" as="geometry" />
        </mxCell>
        <mxCell id="m1JEwa6g45QXfkqcJDw3-19" style="edgeStyle=orthogonalEdgeStyle;rounded=0;orthogonalLoop=1;jettySize=auto;html=1;entryX=0.5;entryY=1;entryDx=0;entryDy=0;exitX=1;exitY=0.5;exitDx=0;exitDy=0;" edge="1" parent="1" source="m1JEwa6g45QXfkqcJDw3-7" target="m1JEwa6g45QXfkqcJDw3-6">
          <mxGeometry relative="1" as="geometry">
            <Array as="points">
              <mxPoint x="230" y="450" />
            </Array>
          </mxGeometry>
        </mxCell>
        <mxCell id="m1JEwa6g45QXfkqcJDw3-7" value="16 battery cells&lt;br&gt;(J400)" style="rounded=0;whiteSpace=wrap;html=1;" vertex="1" parent="1">
          <mxGeometry x="110" y="420" width="100" height="60" as="geometry" />
        </mxCell>
        <mxCell id="m1JEwa6g45QXfkqcJDw3-20" value="GPIO0 to GPIO9" style="rounded=0;whiteSpace=wrap;html=1;" vertex="1" parent="1">
          <mxGeometry x="340" y="340" width="100" height="60" as="geometry" />
        </mxCell>
        <mxCell id="m1JEwa6g45QXfkqcJDw3-30" value="" style="edgeStyle=orthogonalEdgeStyle;rounded=0;orthogonalLoop=1;jettySize=auto;html=1;" edge="1" parent="1" source="m1JEwa6g45QXfkqcJDw3-26" target="m1JEwa6g45QXfkqcJDw3-20">
          <mxGeometry relative="1" as="geometry" />
        </mxCell>
        <mxCell id="m1JEwa6g45QXfkqcJDw3-26" value="10 NTC temperature sensors&lt;br&gt;(J403)" style="rounded=0;whiteSpace=wrap;html=1;" vertex="1" parent="1">
          <mxGeometry x="480" y="340" width="100" height="60" as="geometry" />
        </mxCell>
      </root>
    </mxGraphModel>
  </diagram>
</mxfile>
